<?xml version="1.0" encoding="utf-8"?>
<!-- Generator: Adobe Illustrator 19.2.1, SVG Export Plug-In . SVG Version: 6.00 Build 0)  -->
<svg version="1.1" id="Layer_1" xmlns="http://www.w3.org/2000/svg" xmlns:xlink="http://www.w3.org/1999/xlink" x="0px" y="0px"
	 viewBox="0 0 24 24" style="enable-background:new 0 0 24 24;" xml:space="preserve">
<style type="text/css">
	.st0{fill:#42AAF3;}
	.st1{fill:#F28A1F;}
</style>
<g id="Layer_1_1_">
	<path class="st0" d="M17.5,12l-4.2-2.5l-2.6,5l-2.2,5.2c-0.2,0.4,0,0.9,0.4,1.2c0.2,0,0.4,0.1,0.6,0.1s0.5-0.1,0.7-0.3l7.5-7.1
		c0.2-0.2,0.3-0.5,0.3-0.8S17.8,12.2,17.5,12z"/>
</g>
<g id="Layer_1_copy">
	<path class="st1" d="M13.3,9.6l2.1-5.1c0.1-0.1,0.1-0.3,0.1-0.4c0-0.6-0.4-1-1-1c-0.2,0-0.5,0.1-0.6,0.2c0,0-0.1,0-0.1,0.1
		l-7.5,7.1C6.1,10.6,6,10.9,6,11.2s0.2,0.6,0.5,0.8l4.2,2.5L13.3,9.6z"/>
</g>
</svg>
